<?xml version="1.0" encoding="utf-8"?>
<!-- Generator: Adobe Illustrator 16.0.0, SVG Export Plug-In . SVG Version: 6.00 Build 0)  -->
<!DOCTYPE svg PUBLIC "-//W3C//DTD SVG 1.1//EN" "http://www.w3.org/Graphics/SVG/1.1/DTD/svg11.dtd">
<svg version="1.1" id="Layer_1" xmlns="http://www.w3.org/2000/svg" xmlns:xlink="http://www.w3.org/1999/xlink" x="0px" y="0px"
	  viewBox="0 0 130 130" enable-background="new 0 0 130 130" xml:space="preserve">
<g>
	<g id="Base_icon_copy_3">
		<path fill="#FF8E2E" d="M125.8,1H4.2C2.433,1,1,2.433,1,4.2v121.6c0,1.768,1.433,3.2,3.2,3.2h121.6c1.768,0,3.2-1.433,3.2-3.2V4.2
			C129,2.433,127.567,1,125.8,1z"/>
	</g>
	<g id="Shape_9">
		<path fill="#FFFFFF" d="M89.598,61.42l-0.43-0.888l-0.718-0.564c-0.939-0.734-5.688,0.05-6.966-1.114
			c-0.909-0.835-1.049-2.336-1.322-4.369c-0.51-3.95-0.835-4.154-1.449-5.487c-2.237-4.749-8.303-8.319-12.471-8.812h-11.29
			c-8.883,0-16.143,7.274-16.143,16.157v18.843c0,8.867,7.26,16.127,16.143,16.127H73.5c8.883,0,16.098-7.26,16.147-16.127
			l0.101-13.051L89.598,61.42z M55.157,53.386h8.952c1.708,0,3.091,1.388,3.091,3.082c0,1.688-1.383,3.09-3.091,3.09h-8.952
			c-1.709,0-3.092-1.402-3.092-3.09C52.065,54.774,53.448,53.386,55.157,53.386z M73.346,78.022H55.157
			c-1.709,0-3.092-1.404-3.092-3.077c0-1.692,1.383-3.07,3.092-3.07h18.188c1.697,0,3.076,1.378,3.076,3.07
			C76.422,76.618,75.043,78.022,73.346,78.022z"/>
	</g>
</g>
</svg>
